# Blender v2.82 (sub 7) OBJ File: ''
# www.blender.org
mtllib Moneda.mtl
o Cylinder
v -0.264368 0.000000 -0.864040
v 0.264368 0.000000 -0.864040
v -0.264368 -0.199816 -0.847437
v 0.264368 -0.199816 -0.847437
v -0.264368 -0.391953 -0.798268
v 0.264368 -0.391953 -0.798268
v -0.264368 -0.569028 -0.718423
v 0.264368 -0.569028 -0.718423
v -0.264368 -0.724235 -0.610968
v 0.264368 -0.724235 -0.610968
v -0.264368 -0.851611 -0.480035
v 0.264368 -0.851611 -0.480035
v -0.264368 -0.946259 -0.330654
v 0.264368 -0.946259 -0.330654
v -0.264368 -1.004543 -0.168566
v 0.264368 -1.004543 -0.168566
v -0.264368 -1.024223 -0.000000
v 0.264368 -1.024223 -0.000000
v -0.264368 -1.004543 0.168566
v 0.264368 -1.004543 0.168566
v -0.264368 -0.946259 0.330653
v 0.264368 -0.946259 0.330653
v -0.264368 -0.851611 0.480035
v 0.264368 -0.851611 0.480035
v -0.264368 -0.724235 0.610968
v 0.264368 -0.724235 0.610968
v -0.264368 -0.569028 0.718423
v 0.264368 -0.569028 0.718423
v -0.264368 -0.391953 0.798268
v 0.264368 -0.391953 0.798268
v -0.264368 -0.199816 0.847437
v 0.264368 -0.199816 0.847437
v -0.264368 0.000000 0.864040
v 0.264368 0.000000 0.864040
v -0.264368 0.199816 0.847437
v 0.264368 0.199816 0.847437
v -0.264368 0.391954 0.798268
v 0.264368 0.391954 0.798268
v -0.264368 0.569028 0.718422
v 0.264368 0.569028 0.718422
v -0.264368 0.724236 0.610968
v 0.264368 0.724236 0.610968
v -0.264368 0.851611 0.480034
v 0.264368 0.851611 0.480034
v -0.264368 0.946259 0.330653
v 0.264368 0.946259 0.330653
v -0.264368 1.004543 0.168565
v 0.264368 1.004543 0.168565
v -0.264368 1.024223 -0.000001
v 0.264368 1.024223 -0.000001
v -0.264368 1.004543 -0.168567
v 0.264368 1.004543 -0.168567
v -0.264368 0.946259 -0.330655
v 0.264368 0.946259 -0.330655
v -0.264368 0.851610 -0.480036
v 0.264368 0.851610 -0.480036
v -0.264368 0.724234 -0.610969
v 0.264368 0.724234 -0.610969
v -0.264368 0.569027 -0.718423
v 0.264368 0.569027 -0.718423
v -0.264368 0.391952 -0.798269
v 0.264368 0.391952 -0.798269
v -0.264368 0.199814 -0.847438
v 0.264368 0.199814 -0.847438
v -0.264368 0.000000 -1.000000
v -0.264368 -0.231258 -0.980785
v 0.264368 -0.231258 -0.980785
v 0.264368 -0.000000 -1.000000
v -0.264368 -0.453629 -0.923880
v 0.264368 -0.453629 -0.923880
v -0.264368 -0.658567 -0.831470
v 0.264368 -0.658567 -0.831470
v -0.264368 -0.838197 -0.707107
v 0.264368 -0.838197 -0.707107
v -0.264368 -0.985615 -0.555570
v 0.264368 -0.985615 -0.555570
v -0.264368 -1.095157 -0.382683
v 0.264368 -1.095157 -0.382683
v -0.264368 -1.162612 -0.195090
v 0.264368 -1.162612 -0.195090
v -0.264368 -1.185389 -0.000000
v 0.264368 -1.185389 -0.000000
v -0.264368 -1.162613 0.195090
v 0.264368 -1.162613 0.195090
v -0.264368 -1.095157 0.382683
v 0.264368 -1.095157 0.382683
v -0.264368 -0.985615 0.555570
v 0.264368 -0.985615 0.555570
v -0.264368 -0.838197 0.707107
v 0.264368 -0.838197 0.707107
v -0.264368 -0.658567 0.831470
v 0.264368 -0.658567 0.831470
v -0.264368 -0.453629 0.923880
v 0.264368 -0.453629 0.923880
v -0.264368 -0.231258 0.980785
v 0.264368 -0.231258 0.980785
v -0.264368 0.000000 1.000000
v 0.264368 0.000000 1.000000
v -0.264368 0.231258 0.980785
v 0.264368 0.231258 0.980785
v -0.264368 0.453629 0.923879
v 0.264368 0.453629 0.923879
v -0.264368 0.658568 0.831469
v 0.264368 0.658568 0.831469
v -0.264368 0.838197 0.707106
v 0.264368 0.838197 0.707106
v -0.264368 0.985616 0.555570
v 0.264368 0.985616 0.555570
v -0.264368 1.095157 0.382683
v 0.264368 1.095157 0.382683
v -0.264368 1.162613 0.195089
v 0.264368 1.162613 0.195089
v -0.264368 1.185389 -0.000001
v 0.264368 1.185389 -0.000001
v -0.264368 1.162612 -0.195091
v 0.264368 1.162612 -0.195091
v -0.264368 1.095156 -0.382684
v 0.264368 1.095156 -0.382684
v -0.264368 0.985614 -0.555571
v 0.264368 0.985614 -0.555571
v -0.264368 0.838196 -0.707108
v 0.264368 0.838196 -0.707108
v -0.264368 0.658566 -0.831470
v 0.264368 0.658566 -0.831470
v -0.264368 0.453627 -0.923880
v 0.264368 0.453627 -0.923880
v -0.264368 0.231256 -0.980786
v 0.264368 0.231256 -0.980786
v 0.100633 -0.199816 -0.847437
v 0.100633 0.000000 -0.864040
v 0.100633 -0.391953 -0.798268
v 0.100633 -0.569028 -0.718423
v 0.100633 -0.724235 -0.610968
v 0.100633 -0.851611 -0.480035
v 0.100633 -0.946259 -0.330654
v 0.100633 -1.004543 -0.168566
v 0.100633 -1.024223 -0.000000
v 0.100633 -1.004543 0.168566
v 0.100633 -0.946259 0.330653
v 0.100633 -0.851611 0.480035
v 0.100633 -0.724235 0.610968
v 0.100633 -0.569028 0.718423
v 0.100633 -0.391953 0.798268
v 0.100633 -0.199816 0.847437
v 0.100633 0.000000 0.864040
v 0.100633 0.199816 0.847437
v 0.100633 0.391954 0.798268
v 0.100633 0.569028 0.718422
v 0.100633 0.724236 0.610968
v 0.100633 0.851611 0.480034
v 0.100633 0.946259 0.330653
v 0.100633 1.004543 0.168565
v 0.100633 1.024223 -0.000001
v 0.100633 1.004543 -0.168567
v 0.100633 0.946259 -0.330655
v 0.100633 0.851610 -0.480036
v 0.100633 0.724234 -0.610969
v 0.100633 0.569027 -0.718423
v 0.100633 0.391952 -0.798269
v 0.100633 0.199814 -0.847438
v 0.100633 -0.790839 0.446283
v 0.100633 -0.784276 0.433156
v 0.100633 0.790839 0.433156
v 0.100633 0.790839 -0.439719
v 0.100633 -0.784276 -0.439720
v 0.100633 0.534883 -0.439719
v 0.100633 0.246112 -0.439719
v 0.100633 0.062348 -0.439719
v 0.100633 -0.134541 -0.439719
v 0.100633 -0.331430 -0.439719
v 0.100633 -0.561135 -0.439720
v 0.100633 -0.561135 0.433156
v 0.100633 0.534883 0.433156
v 0.100633 0.246112 -0.105008
v 0.100633 0.062348 -0.105008
v 0.100633 -0.134541 -0.111570
v 0.100633 -0.331430 -0.111570
v -0.381901 0.534883 -0.439719
v -0.381901 0.246112 -0.439719
v -0.381901 0.062348 -0.439719
v -0.381901 -0.134541 -0.439719
v -0.381901 -0.331430 -0.439719
v -0.381901 -0.561135 -0.439720
v -0.381901 -0.561135 0.433156
v -0.381901 0.534883 0.433156
v -0.381901 0.246112 -0.105008
v -0.381901 0.062348 -0.105008
v -0.381901 -0.134541 -0.111570
v -0.381901 -0.331430 -0.111570
v -0.177979 0.000000 -0.864040
v -0.177979 -0.199816 -0.847437
v -0.177979 -0.391953 -0.798268
v -0.177979 -0.569028 -0.718423
v -0.177979 -0.724235 -0.610968
v -0.177979 -0.851611 -0.480035
v -0.177979 -0.946259 -0.330654
v -0.177979 -1.004543 -0.168566
v -0.177979 -1.024223 -0.000000
v -0.177979 -1.004543 0.168566
v -0.177979 -0.946259 0.330653
v -0.177979 -0.851611 0.480035
v -0.177979 -0.724235 0.610968
v -0.177979 -0.569028 0.718423
v -0.177979 -0.391953 0.798268
v -0.177979 -0.199816 0.847437
v -0.177979 0.000000 0.864040
v -0.177979 0.199816 0.847437
v -0.177979 0.391954 0.798268
v -0.177979 0.569028 0.718422
v -0.177979 0.724236 0.610968
v -0.177979 0.851611 0.480034
v -0.177979 0.946259 0.330653
v -0.177979 1.004543 0.168565
v -0.177979 1.024223 -0.000001
v -0.177979 1.004543 -0.168567
v -0.177979 0.946259 -0.330655
v -0.177979 0.851610 -0.480036
v -0.177979 0.724234 -0.610969
v -0.177979 0.569027 -0.718423
v -0.177979 0.391952 -0.798269
v -0.177979 0.199814 -0.847438
vt 1.000000 0.500000
vt 1.000000 1.000000
vt 0.968750 1.000000
vt 0.968750 0.500000
vt 0.937500 1.000000
vt 0.937500 0.500000
vt 0.906250 1.000000
vt 0.906250 0.500000
vt 0.875000 1.000000
vt 0.875000 0.500000
vt 0.843750 1.000000
vt 0.843750 0.500000
vt 0.812500 1.000000
vt 0.812500 0.500000
vt 0.781250 1.000000
vt 0.781250 0.500000
vt 0.750000 1.000000
vt 0.750000 0.500000
vt 0.718750 1.000000
vt 0.718750 0.500000
vt 0.687500 1.000000
vt 0.687500 0.500000
vt 0.656250 1.000000
vt 0.656250 0.500000
vt 0.625000 1.000000
vt 0.625000 0.500000
vt 0.593750 1.000000
vt 0.593750 0.500000
vt 0.562500 1.000000
vt 0.562500 0.500000
vt 0.531250 1.000000
vt 0.531250 0.500000
vt 0.500000 1.000000
vt 0.500000 0.500000
vt 0.468750 1.000000
vt 0.468750 0.500000
vt 0.437500 1.000000
vt 0.437500 0.500000
vt 0.406250 1.000000
vt 0.406250 0.500000
vt 0.375000 1.000000
vt 0.375000 0.500000
vt 0.343750 1.000000
vt 0.343750 0.500000
vt 0.312500 1.000000
vt 0.312500 0.500000
vt 0.281250 1.000000
vt 0.281250 0.500000
vt 0.250000 1.000000
vt 0.250000 0.500000
vt 0.218750 1.000000
vt 0.218750 0.500000
vt 0.187500 1.000000
vt 0.187500 0.500000
vt 0.156250 1.000000
vt 0.156250 0.500000
vt 0.125000 1.000000
vt 0.125000 0.500000
vt 0.093750 1.000000
vt 0.093750 0.500000
vt 0.062500 1.000000
vt 0.062500 0.500000
vt 0.134792 0.422422
vt 0.103368 0.396632
vt 0.103368 0.396632
vt 0.134792 0.422422
vt 0.031250 1.000000
vt 0.031250 0.500000
vt 0.000000 1.000000
vt 0.000000 0.500000
vt 0.577578 0.134792
vt 0.558416 0.170643
vt 0.558416 0.170643
vt 0.577578 0.134792
vt 0.790456 0.453385
vt 0.750000 0.457369
vt 0.750000 0.490000
vt 0.796822 0.485388
vt 0.250000 0.457369
vt 0.290456 0.453385
vt 0.296822 0.485388
vt 0.250000 0.490000
vt 0.829357 0.441584
vt 0.841844 0.471731
vt 0.329357 0.441584
vt 0.341844 0.471731
vt 0.865208 0.422422
vt 0.883337 0.449553
vt 0.365208 0.422421
vt 0.383337 0.449553
vt 0.896632 0.396632
vt 0.919706 0.419706
vt 0.396632 0.396632
vt 0.419706 0.419706
vt 0.922421 0.365208
vt 0.949553 0.383337
vt 0.422421 0.365208
vt 0.449553 0.383337
vt 0.941584 0.329357
vt 0.971731 0.341844
vt 0.441584 0.329357
vt 0.471731 0.341844
vt 0.953385 0.290456
vt 0.985388 0.296822
vt 0.453385 0.290456
vt 0.485388 0.296822
vt 0.957370 0.250000
vt 0.990000 0.250000
vt 0.457370 0.250000
vt 0.490000 0.250000
vt 0.953385 0.209544
vt 0.985388 0.203178
vt 0.453385 0.209544
vt 0.485388 0.203178
vt 0.941584 0.170643
vt 0.971731 0.158156
vt 0.441584 0.170643
vt 0.471731 0.158156
vt 0.922421 0.134792
vt 0.949553 0.116663
vt 0.422421 0.134792
vt 0.449553 0.116663
vt 0.896632 0.103368
vt 0.919706 0.080294
vt 0.396632 0.103368
vt 0.419706 0.080294
vt 0.865208 0.077579
vt 0.883337 0.050447
vt 0.365208 0.077579
vt 0.383337 0.050447
vt 0.829357 0.058416
vt 0.841844 0.028269
vt 0.329357 0.058416
vt 0.341844 0.028269
vt 0.790456 0.046615
vt 0.796822 0.014612
vt 0.290456 0.046615
vt 0.296822 0.014612
vt 0.750000 0.042631
vt 0.750000 0.010000
vt 0.250000 0.042631
vt 0.250000 0.010000
vt 0.709544 0.046615
vt 0.703178 0.014612
vt 0.209544 0.046615
vt 0.203178 0.014612
vt 0.670643 0.058416
vt 0.658156 0.028269
vt 0.170643 0.058416
vt 0.158156 0.028269
vt 0.634792 0.077579
vt 0.616663 0.050447
vt 0.134792 0.077579
vt 0.116663 0.050447
vt 0.603368 0.103368
vt 0.580294 0.080294
vt 0.103368 0.103368
vt 0.080294 0.080294
vt 0.550447 0.116663
vt 0.077578 0.134792
vt 0.050447 0.116663
vt 0.528269 0.158156
vt 0.058416 0.170643
vt 0.028269 0.158156
vt 0.546615 0.209544
vt 0.514611 0.203179
vt 0.046615 0.209544
vt 0.014611 0.203179
vt 0.542631 0.250000
vt 0.510000 0.250000
vt 0.042631 0.250000
vt 0.010000 0.250000
vt 0.546615 0.290456
vt 0.514612 0.296822
vt 0.046615 0.290456
vt 0.014612 0.296822
vt 0.558416 0.329357
vt 0.528269 0.341844
vt 0.058416 0.329357
vt 0.028269 0.341844
vt 0.577579 0.365209
vt 0.550447 0.383337
vt 0.077579 0.365209
vt 0.050447 0.383337
vt 0.603368 0.396632
vt 0.580295 0.419706
vt 0.080295 0.419706
vt 0.634792 0.422422
vt 0.616663 0.449553
vt 0.116663 0.449553
vt 0.670643 0.441585
vt 0.658156 0.471731
vt 0.170643 0.441585
vt 0.158156 0.471731
vt 0.709544 0.453385
vt 0.703179 0.485389
vt 0.209545 0.453385
vt 0.203179 0.485389
vt 0.290456 0.453385
vt 0.250000 0.457369
vt 0.209545 0.453385
vt 0.170643 0.441585
vt 0.077579 0.365209
vt 0.058416 0.329357
vt 0.046615 0.290456
vt 0.042631 0.250000
vt 0.046615 0.209544
vt 0.058416 0.170643
vt 0.077578 0.134792
vt 0.089883 0.146042
vt 0.089883 0.355533
vt 0.141705 0.355533
vt 0.200171 0.355533
vt 0.237377 0.355533
vt 0.277240 0.355533
vt 0.317103 0.355533
vt 0.363610 0.355533
vt 0.408789 0.355533
vt 0.410117 0.142892
vt 0.422421 0.134792
vt 0.441584 0.170643
vt 0.453385 0.209544
vt 0.457370 0.250000
vt 0.453385 0.290456
vt 0.441584 0.329357
vt 0.422421 0.365208
vt 0.396632 0.396632
vt 0.365208 0.422421
vt 0.329357 0.441584
vt 0.290456 0.046615
vt 0.250000 0.042631
vt 0.209544 0.046615
vt 0.170643 0.058416
vt 0.396632 0.103368
vt 0.134792 0.077579
vt 0.365208 0.077579
vt 0.103368 0.103368
vt 0.329357 0.058416
vt 0.408788 0.146042
vt 0.363610 0.146042
vt 0.141705 0.146042
vt 0.237377 0.355533
vt 0.277240 0.355533
vt 0.200171 0.275202
vt 0.237376 0.275202
vt 0.277240 0.276777
vt 0.317103 0.276777
vt 0.363610 0.146042
vt 0.363610 0.355533
vt 0.317103 0.355533
vt 0.317103 0.276777
vt 0.277240 0.276777
vt 0.237376 0.275202
vt 0.200171 0.275202
vt 0.200171 0.355533
vt 0.141705 0.355533
vt 0.141705 0.146042
vt 0.750000 0.457369
vt 0.790456 0.453385
vt 0.829357 0.441584
vt 0.865208 0.422422
vt 0.896632 0.396632
vt 0.922421 0.365208
vt 0.941584 0.329357
vt 0.953385 0.290456
vt 0.957370 0.250000
vt 0.953385 0.209544
vt 0.941584 0.170643
vt 0.922421 0.134792
vt 0.896632 0.103368
vt 0.865208 0.077579
vt 0.829357 0.058416
vt 0.790456 0.046615
vt 0.750000 0.042631
vt 0.709544 0.046615
vt 0.670643 0.058416
vt 0.634792 0.077579
vt 0.603368 0.103368
vt 0.546615 0.209544
vt 0.542631 0.250000
vt 0.546615 0.290456
vt 0.558416 0.329357
vt 0.577579 0.365209
vt 0.603368 0.396632
vt 0.634792 0.422422
vt 0.670643 0.441585
vt 0.709544 0.453385
vn -0.0000 -0.0828 -0.9966
vn 0.0000 -0.2479 -0.9688
vn 0.0000 -0.4111 -0.9116
vn 0.0000 -0.5692 -0.8222
vn 0.0000 -0.7168 -0.6973
vn 0.0000 -0.8447 -0.5352
vn 0.0000 -0.9410 -0.3384
vn 0.0000 -0.9933 -0.1160
vn 0.0000 -0.9933 0.1160
vn 0.0000 -0.9410 0.3384
vn 0.0000 -0.8447 0.5352
vn 0.0000 -0.7168 0.6973
vn 0.0000 -0.5692 0.8222
vn 0.0000 -0.4111 0.9116
vn 0.0000 -0.2479 0.9688
vn 0.0000 -0.0828 0.9966
vn 0.0000 0.0828 0.9966
vn 0.0000 0.2479 0.9688
vn 0.0000 0.4111 0.9116
vn 0.0000 0.5692 0.8222
vn 0.0000 0.7168 0.6973
vn 0.0000 0.8447 0.5352
vn 0.0000 0.9410 0.3384
vn 0.0000 0.9933 0.1160
vn 0.0000 0.9933 -0.1160
vn 0.0000 0.9410 -0.3384
vn 0.0000 0.8447 -0.5352
vn 0.0000 0.7168 -0.6973
vn 0.0000 0.5692 -0.8222
vn 0.0000 0.4111 -0.9116
vn -0.0000 0.2479 -0.9688
vn -0.0000 0.0828 -0.9966
vn -1.0000 0.0000 0.0000
vn 1.0000 0.0000 0.0000
vn 0.0000 0.0000 1.0000
vn 0.0000 -0.0000 -1.0000
vn -0.0000 -1.0000 -0.0000
vn 0.0000 1.0000 0.0000
usemtl None
s off
f 65/1/1 68/2/1 67/3/1 66/4/1
f 66/4/2 67/3/2 70/5/2 69/6/2
f 69/6/3 70/5/3 72/7/3 71/8/3
f 71/8/4 72/7/4 74/9/4 73/10/4
f 73/10/5 74/9/5 76/11/5 75/12/5
f 75/12/6 76/11/6 78/13/6 77/14/6
f 77/14/7 78/13/7 80/15/7 79/16/7
f 79/16/8 80/15/8 82/17/8 81/18/8
f 81/18/9 82/17/9 84/19/9 83/20/9
f 83/20/10 84/19/10 86/21/10 85/22/10
f 85/22/11 86/21/11 88/23/11 87/24/11
f 87/24/12 88/23/12 90/25/12 89/26/12
f 89/26/13 90/25/13 92/27/13 91/28/13
f 91/28/14 92/27/14 94/29/14 93/30/14
f 93/30/15 94/29/15 96/31/15 95/32/15
f 95/32/16 96/31/16 98/33/16 97/34/16
f 97/34/17 98/33/17 100/35/17 99/36/17
f 99/36/18 100/35/18 102/37/18 101/38/18
f 101/38/19 102/37/19 104/39/19 103/40/19
f 103/40/20 104/39/20 106/41/20 105/42/20
f 105/42/21 106/41/21 108/43/21 107/44/21
f 107/44/22 108/43/22 110/45/22 109/46/22
f 109/46/23 110/45/23 112/47/23 111/48/23
f 111/48/24 112/47/24 114/49/24 113/50/24
f 113/50/25 114/49/25 116/51/25 115/52/25
f 115/52/26 116/51/26 118/53/26 117/54/26
f 117/54/27 118/53/27 120/55/27 119/56/27
f 119/56/28 120/55/28 122/57/28 121/58/28
f 121/58/29 122/57/29 124/59/29 123/60/29
f 123/60/30 124/59/30 126/61/30 125/62/30
f 60/63/13 58/64/13 157/65/13 158/66/13
f 125/62/31 126/61/31 128/67/31 127/68/31
f 127/68/32 128/67/32 68/69/32 65/70/32
f 43/71/6 45/72/6 212/73/6 211/74/6
f 3/75/33 1/76/33 65/77/33 66/78/33
f 2/79/34 4/80/34 67/81/34 68/82/34
f 5/83/33 3/75/33 66/78/33 69/84/33
f 4/80/34 6/85/34 70/86/34 67/81/34
f 7/87/33 5/83/33 69/84/33 71/88/33
f 6/85/34 8/89/34 72/90/34 70/86/34
f 9/91/33 7/87/33 71/88/33 73/92/33
f 8/89/34 10/93/34 74/94/34 72/90/34
f 11/95/33 9/91/33 73/92/33 75/96/33
f 10/93/34 12/97/34 76/98/34 74/94/34
f 13/99/33 11/95/33 75/96/33 77/100/33
f 12/97/34 14/101/34 78/102/34 76/98/34
f 15/103/33 13/99/33 77/100/33 79/104/33
f 14/101/34 16/105/34 80/106/34 78/102/34
f 17/107/33 15/103/33 79/104/33 81/108/33
f 16/105/34 18/109/34 82/110/34 80/106/34
f 19/111/33 17/107/33 81/108/33 83/112/33
f 18/109/34 20/113/34 84/114/34 82/110/34
f 21/115/33 19/111/33 83/112/33 85/116/33
f 20/113/34 22/117/34 86/118/34 84/114/34
f 23/119/33 21/115/33 85/116/33 87/120/33
f 22/117/34 24/121/34 88/122/34 86/118/34
f 25/123/33 23/119/33 87/120/33 89/124/33
f 24/121/34 26/125/34 90/126/34 88/122/34
f 27/127/33 25/123/33 89/124/33 91/128/33
f 26/125/34 28/129/34 92/130/34 90/126/34
f 29/131/33 27/127/33 91/128/33 93/132/33
f 28/129/34 30/133/34 94/134/34 92/130/34
f 31/135/33 29/131/33 93/132/33 95/136/33
f 30/133/34 32/137/34 96/138/34 94/134/34
f 33/139/33 31/135/33 95/136/33 97/140/33
f 32/137/34 34/141/34 98/142/34 96/138/34
f 35/143/33 33/139/33 97/140/33 99/144/33
f 34/141/34 36/145/34 100/146/34 98/142/34
f 37/147/33 35/143/33 99/144/33 101/148/33
f 36/145/34 38/149/34 102/150/34 100/146/34
f 39/151/33 37/147/33 101/148/33 103/152/33
f 38/149/34 40/153/34 104/154/34 102/150/34
f 41/155/33 39/151/33 103/152/33 105/156/33
f 40/153/34 42/157/34 106/158/34 104/154/34
f 43/71/33 41/155/33 105/156/33 107/159/33
f 42/157/34 44/160/34 108/161/34 106/158/34
f 45/72/33 43/71/33 107/159/33 109/162/33
f 44/160/34 46/163/34 110/164/34 108/161/34
f 47/165/33 45/72/33 109/162/33 111/166/33
f 46/163/34 48/167/34 112/168/34 110/164/34
f 49/169/33 47/165/33 111/166/33 113/170/33
f 48/167/34 50/171/34 114/172/34 112/168/34
f 51/173/33 49/169/33 113/170/33 115/174/33
f 50/171/34 52/175/34 116/176/34 114/172/34
f 53/177/33 51/173/33 115/174/33 117/178/33
f 52/175/34 54/179/34 118/180/34 116/176/34
f 55/181/33 53/177/33 117/178/33 119/182/33
f 54/179/34 56/183/34 120/184/34 118/180/34
f 57/185/33 55/181/33 119/182/33 121/186/33
f 56/183/34 58/64/34 122/187/34 120/184/34
f 59/188/33 57/185/33 121/186/33 123/189/33
f 58/64/34 60/63/34 124/190/34 122/187/34
f 61/191/33 59/188/33 123/189/33 125/192/33
f 60/63/34 62/193/34 126/194/34 124/190/34
f 63/195/33 61/191/33 125/192/33 127/196/33
f 62/193/34 64/197/34 128/198/34 126/194/34
f 1/76/33 63/195/33 127/196/33 65/77/33
f 64/197/34 2/79/34 68/82/34 128/198/34
f 129/199/34 130/200/34 160/201/34 159/202/34 158/66/34 157/65/34 156/203/34 155/204/34 154/205/34 153/206/34 152/207/34 151/208/34 150/209/34 163/210/34 164/211/34 166/212/34 167/213/34 168/214/34 169/215/34 170/216/34 171/217/34 165/218/34 161/219/34 140/220/34 139/221/34 138/222/34 137/223/34 136/224/34 135/225/34 134/226/34 133/227/34 132/228/34 131/229/34
f 20/113/25 18/109/25 137/223/25 138/222/25
f 34/141/32 32/137/32 144/230/32 145/231/32
f 48/167/7 46/163/7 151/208/7 152/207/7
f 8/89/19 6/85/19 131/229/19 132/228/19
f 62/193/14 60/63/14 158/66/14 159/202/14
f 22/117/26 20/113/26 138/222/26 139/221/26
f 36/145/1 34/141/1 145/231/1 146/232/1
f 50/171/8 48/167/8 152/207/8 153/206/8
f 10/93/20 8/89/20 132/228/20 133/227/20
f 64/197/15 62/193/15 159/202/15 160/201/15
f 24/121/27 22/117/27 139/221/27 140/220/27
f 38/149/2 36/145/2 146/232/2 147/233/2
f 52/175/9 50/171/9 153/206/9 154/205/9
f 12/97/21 10/93/21 133/227/21 134/226/21
f 2/79/16 64/197/16 160/201/16 130/200/16
f 26/125/28 24/121/28 140/220/28 141/234/28
f 40/153/3 38/149/3 147/233/3 148/235/3
f 54/179/10 52/175/10 154/205/10 155/204/10
f 14/101/22 12/97/22 134/226/22 135/225/22
f 28/129/29 26/125/29 141/234/29 142/236/29
f 42/157/4 40/153/4 148/235/4 149/237/4
f 56/183/11 54/179/11 155/204/11 156/203/11
f 16/105/23 14/101/23 135/225/23 136/224/23
f 30/133/30 28/129/30 142/236/30 143/238/30
f 44/160/5 42/157/5 149/237/5 150/209/5
f 4/80/17 2/79/17 130/200/17 129/199/17
f 58/64/12 56/183/12 156/203/12 157/65/12
f 18/109/24 16/105/24 136/224/24 137/223/24
f 32/137/31 30/133/31 143/238/31 144/230/31
f 46/163/6 44/160/6 150/209/6 151/208/6
f 6/85/18 4/80/18 129/199/18 131/229/18
f 140/220/34 161/219/34 162/239/34 172/240/34 173/241/34 163/210/34 150/209/34 149/237/34 148/235/34 147/233/34 146/232/34 145/231/34 144/230/34 143/238/34 142/236/34 141/234/34
f 162/239/34 161/219/34 165/218/34 171/217/34 172/240/34
f 169/215/35 168/214/35 180/242/35 181/243/35
f 173/241/34 166/212/34 164/211/34 163/210/34
f 167/213/34 174/244/34 175/245/34 168/214/34
f 169/215/34 176/246/34 177/247/34 170/216/34
f 184/248/34 183/249/34 182/250/34 189/251/34 188/252/34 181/243/34 180/242/34 187/253/34 186/254/34 179/255/34 178/256/34 185/257/34
f 175/245/35 174/244/35 186/254/35 187/253/35
f 173/241/36 172/240/36 184/248/36 185/257/36
f 170/216/37 177/247/37 189/251/37 182/250/37
f 168/214/37 175/245/37 187/253/37 180/242/37
f 167/213/35 166/212/35 178/256/35 179/255/35
f 166/212/37 173/241/37 185/257/37 178/256/37
f 172/240/38 171/217/38 183/249/38 184/248/38
f 171/217/35 170/216/35 182/250/35 183/249/35
f 176/246/38 169/215/38 181/243/38 188/252/38
f 174/244/38 167/213/38 179/255/38 186/254/38
f 177/247/35 176/246/35 188/252/35 189/251/35
f 190/258/33 191/259/33 192/260/33 193/261/33 194/262/33 195/263/33 196/264/33 197/265/33 198/266/33 199/267/33 200/268/33 201/269/33 202/270/33 203/271/33 204/272/33 205/273/33 206/274/33 207/275/33 208/276/33 209/277/33 210/278/33 211/74/33 212/73/33 213/279/33 214/280/33 215/281/33 216/282/33 217/283/33 218/284/33 219/285/33 220/286/33 221/287/33
f 3/75/18 5/83/18 192/260/18 191/259/18
f 57/185/13 59/188/13 219/285/13 218/284/13
f 17/107/25 19/111/25 199/267/25 198/266/25
f 31/135/32 33/139/32 206/274/32 205/273/32
f 45/72/7 47/165/7 213/279/7 212/73/7
f 5/83/19 7/87/19 193/261/19 192/260/19
f 59/188/14 61/191/14 220/286/14 219/285/14
f 19/111/26 21/115/26 200/268/26 199/267/26
f 33/139/1 35/143/1 207/275/1 206/274/1
f 47/165/8 49/169/8 214/280/8 213/279/8
f 7/87/20 9/91/20 194/262/20 193/261/20
f 61/191/15 63/195/15 221/287/15 220/286/15
f 21/115/27 23/119/27 201/269/27 200/268/27
f 35/143/2 37/147/2 208/276/2 207/275/2
f 49/169/9 51/173/9 215/281/9 214/280/9
f 9/91/21 11/95/21 195/263/21 194/262/21
f 63/195/16 1/76/16 190/258/16 221/287/16
f 23/119/28 25/123/28 202/270/28 201/269/28
f 37/147/3 39/151/3 209/277/3 208/276/3
f 51/173/10 53/177/10 216/282/10 215/281/10
f 11/95/22 13/99/22 196/264/22 195/263/22
f 25/123/29 27/127/29 203/271/29 202/270/29
f 39/151/4 41/155/4 210/278/4 209/277/4
f 53/177/11 55/181/11 217/283/11 216/282/11
f 13/99/23 15/103/23 197/265/23 196/264/23
f 27/127/30 29/131/30 204/272/30 203/271/30
f 41/155/5 43/71/5 211/74/5 210/278/5
f 1/76/17 3/75/17 191/259/17 190/258/17
f 55/181/12 57/185/12 218/284/12 217/283/12
f 15/103/24 17/107/24 198/266/24 197/265/24
f 29/131/31 31/135/31 205/273/31 204/272/31
